<svg width="36" height="34" viewBox="0 0 36 34" fill="none" xmlns="http://www.w3.org/2000/svg">
<path fill-rule="evenodd" clip-rule="evenodd" d="M0 33.2H15.4286C18.5111 33.2 21.3106 32.7415 23.827 31.8246C26.3434 30.876 28.498 29.5638 30.291 27.888C32.1153 26.1806 33.5151 24.1253 34.4902 21.7223C35.4967 19.3192 36 16.6474 36 13.7069C36 10.9244 35.3552 8.50553 34.0655 6.45029C32.8073 4.39505 30.983 2.8141 28.5924 1.70743C26.2018 0.569144 23.3237 0 19.9581 0H6.60551L3.30275 16.6L1.65138 24.9L1.37901 26.2689L1.03801 27.9829L0.825688 29.05L0 33.2ZM15.6173 27.9829H7.17169H1.03801L1.37901 26.2689H7.5127L7.8537 24.555L8.53572 21.1271L10.1944 19.7377L14.2106 26.3492H19.9039L14.0879 16.7445L22.9235 9.33815H16.5382L9.77141 14.9164L11.7012 5.21714H19.2975C21.6252 5.21714 23.5596 5.58076 25.1009 6.308C26.6737 7.03524 27.8532 8.06286 28.6396 9.39086C29.426 10.7189 29.8191 12.284 29.8191 14.0863C29.8191 16.7423 29.2529 19.1137 28.1206 21.2006C26.9882 23.2874 25.3526 24.9474 23.2136 26.1806C21.1062 27.3821 18.5741 27.9829 15.6173 27.9829Z" fill="#F6B100"/>
</svg>
