<svg width="150" height="44" viewBox="0 0 150 44" fill="none" xmlns="http://www.w3.org/2000/svg">
<path d="M57.8785 29.3859H55.1818L55.1988 27.3953H57.8785C58.5477 27.3953 59.112 27.2451 59.5713 26.9445C60.0307 26.6382 60.3767 26.193 60.6092 25.6089C60.8474 25.0248 60.9665 24.3187 60.9665 23.4907V22.8867C60.9665 22.2515 60.8984 21.6929 60.7623 21.2109C60.6319 20.7288 60.4362 20.3233 60.1753 19.9944C59.9144 19.6655 59.594 19.4188 59.2141 19.2543C58.8341 19.0842 58.3974 18.9991 57.904 18.9991H55.1308V17H57.904C58.732 17 59.4891 17.1418 60.1753 17.4253C60.8672 17.7032 61.4655 18.1031 61.9703 18.6248C62.475 19.1466 62.8635 19.7704 63.1357 20.4963C63.4136 21.2166 63.5525 22.019 63.5525 22.9037V23.4907C63.5525 24.3697 63.4136 25.1722 63.1357 25.8981C62.8635 26.6241 62.475 27.2479 61.9703 27.7696C61.4712 28.2857 60.8729 28.6855 60.1753 28.9691C59.4834 29.247 58.7178 29.3859 57.8785 29.3859ZM56.628 17V29.3859H54.0759V17H56.628Z" fill="white"/>
<path d="M45.552 17V29.3859H43V17H45.552ZM52.97 17L48.0616 23.1164L45.2288 26.1619L44.7694 23.7459L46.6835 21.1258L49.8395 17H52.97ZM50.0692 29.3859L46.4197 23.6608L48.3083 22.0786L53.0891 29.3859H50.0692Z" fill="white"/>
<path d="M143.442 20.1815V21.9169H138.083V20.1815H143.442ZM139.41 17.9102H141.86V26.6127C141.86 26.8792 141.894 27.0834 141.962 27.2252C142.035 27.3669 142.143 27.4662 142.285 27.5229C142.427 27.5739 142.605 27.5995 142.821 27.5995C142.974 27.5995 143.11 27.5938 143.229 27.5824C143.354 27.5654 143.459 27.5484 143.544 27.5314L143.552 29.3349C143.343 29.4029 143.116 29.4568 142.872 29.4965C142.628 29.5362 142.359 29.556 142.064 29.556C141.525 29.556 141.054 29.4681 140.652 29.2923C140.255 29.1108 139.948 28.8216 139.733 28.4246C139.517 28.0276 139.41 27.5059 139.41 26.8594V17.9102Z" fill="white"/>
<path d="M134.578 22.1892V29.3859H132.128V20.1816H134.433L134.578 22.1892ZM137.351 20.122L137.308 22.3933C137.189 22.3763 137.045 22.3621 136.875 22.3508C136.71 22.3338 136.56 22.3253 136.424 22.3253C136.078 22.3253 135.777 22.3706 135.522 22.4614C135.272 22.5464 135.063 22.6741 134.893 22.8442C134.728 23.0143 134.603 23.2213 134.518 23.4652C134.439 23.709 134.393 23.9869 134.382 24.2989L133.889 24.1457C133.889 23.5503 133.948 23.003 134.067 22.5039C134.186 21.9992 134.359 21.5597 134.586 21.1854C134.819 20.8111 135.102 20.5218 135.437 20.3177C135.772 20.1135 136.154 20.0114 136.585 20.0114C136.721 20.0114 136.86 20.0228 137.002 20.0454C137.144 20.0625 137.26 20.088 137.351 20.122Z" fill="white"/>
<path d="M121.903 24.8773V24.6987C121.903 24.0238 121.999 23.4028 122.192 22.8357C122.385 22.2629 122.665 21.7667 123.034 21.347C123.403 20.9273 123.856 20.6012 124.395 20.3687C124.934 20.1305 125.552 20.0114 126.25 20.0114C126.947 20.0114 127.568 20.1305 128.113 20.3687C128.657 20.6012 129.114 20.9273 129.482 21.347C129.856 21.7667 130.14 22.2629 130.333 22.8357C130.526 23.4028 130.622 24.0238 130.622 24.6987V24.8773C130.622 25.5465 130.526 26.1675 130.333 26.7403C130.14 27.3074 129.856 27.8037 129.482 28.229C129.114 28.6487 128.66 28.9748 128.121 29.2073C127.582 29.4398 126.964 29.5561 126.267 29.5561C125.569 29.5561 124.948 29.4398 124.404 29.2073C123.865 28.9748 123.408 28.6487 123.034 28.229C122.665 27.8037 122.385 27.3074 122.192 26.7403C121.999 26.1675 121.903 25.5465 121.903 24.8773ZM124.353 24.6987V24.8773C124.353 25.263 124.387 25.6231 124.455 25.9577C124.523 26.2923 124.63 26.5872 124.778 26.8424C124.931 27.0919 125.13 27.2876 125.373 27.4294C125.617 27.5711 125.915 27.642 126.267 27.642C126.607 27.642 126.899 27.5711 127.143 27.4294C127.387 27.2876 127.582 27.0919 127.73 26.8424C127.877 26.5872 127.985 26.2923 128.053 25.9577C128.127 25.6231 128.164 25.263 128.164 24.8773V24.6987C128.164 24.3244 128.127 23.9728 128.053 23.6438C127.985 23.3092 127.874 23.0143 127.721 22.7591C127.574 22.4982 127.378 22.2941 127.134 22.1466C126.89 21.9992 126.596 21.9254 126.25 21.9254C125.904 21.9254 125.609 21.9992 125.365 22.1466C125.127 22.2941 124.931 22.4982 124.778 22.7591C124.63 23.0143 124.523 23.3092 124.455 23.6438C124.387 23.9728 124.353 24.3244 124.353 24.6987Z" fill="white"/>
<path d="M114.944 21.951V32.9248H112.494V20.1816H114.765L114.944 21.951ZM120.771 24.6817V24.8603C120.771 25.5295 120.692 26.1505 120.533 26.7233C120.38 27.2961 120.153 27.7952 119.852 28.2205C119.552 28.6402 119.178 28.9691 118.73 29.2073C118.287 29.4398 117.777 29.5561 117.198 29.5561C116.637 29.5561 116.149 29.4426 115.735 29.2158C115.321 28.989 114.972 28.6714 114.689 28.263C114.411 27.849 114.187 27.3698 114.017 26.8254C113.847 26.2809 113.716 25.6968 113.625 25.073V24.6051C113.716 23.9359 113.847 23.3234 114.017 22.7676C114.187 22.2062 114.411 21.7213 114.689 21.313C114.972 20.899 115.318 20.5785 115.727 20.3517C116.141 20.1248 116.626 20.0114 117.181 20.0114C117.765 20.0114 118.279 20.122 118.721 20.3432C119.169 20.5644 119.543 20.8819 119.844 21.2959C120.15 21.7099 120.38 22.2033 120.533 22.7761C120.692 23.3489 120.771 23.9841 120.771 24.6817ZM118.313 24.8603V24.6817C118.313 24.2903 118.279 23.9302 118.211 23.6013C118.148 23.2667 118.046 22.9746 117.904 22.7251C117.768 22.4756 117.587 22.2827 117.36 22.1466C117.139 22.0048 116.869 21.934 116.552 21.934C116.217 21.934 115.931 21.9878 115.693 22.0956C115.46 22.2033 115.27 22.3593 115.123 22.5635C114.975 22.7676 114.865 23.0115 114.791 23.295C114.717 23.5786 114.672 23.899 114.655 24.2563V25.4388C114.683 25.8584 114.763 26.2356 114.893 26.5702C115.023 26.8991 115.225 27.16 115.497 27.3528C115.769 27.5456 116.126 27.642 116.569 27.642C116.892 27.642 117.164 27.5711 117.385 27.4294C117.607 27.2819 117.785 27.0806 117.921 26.8254C118.063 26.5702 118.162 26.2753 118.219 25.9407C118.281 25.6061 118.313 25.2459 118.313 24.8603Z" fill="white"/>
<path d="M108.521 26.8424C108.521 26.6666 108.47 26.5078 108.368 26.366C108.266 26.2242 108.076 26.0938 107.798 25.9747C107.526 25.8499 107.132 25.7365 106.616 25.6344C106.151 25.5323 105.717 25.4047 105.314 25.2516C104.917 25.0928 104.571 24.9028 104.277 24.6817C103.987 24.4605 103.76 24.1996 103.596 23.899C103.432 23.5928 103.349 23.244 103.349 22.8527C103.349 22.4671 103.432 22.1041 103.596 21.7638C103.766 21.4235 104.007 21.123 104.319 20.8621C104.637 20.5955 105.022 20.3885 105.476 20.2411C105.935 20.088 106.451 20.0114 107.024 20.0114C107.824 20.0114 108.51 20.139 109.083 20.3942C109.661 20.6494 110.104 21.001 110.41 21.4491C110.722 21.8914 110.878 22.3962 110.878 22.9633H108.428C108.428 22.7251 108.377 22.5124 108.275 22.3253C108.178 22.1324 108.025 21.9822 107.815 21.8744C107.611 21.761 107.345 21.7043 107.016 21.7043C106.744 21.7043 106.508 21.7525 106.31 21.8489C106.111 21.9396 105.958 22.0644 105.85 22.2232C105.748 22.3763 105.697 22.5464 105.697 22.7336C105.697 22.8754 105.726 23.003 105.782 23.1164C105.845 23.2242 105.944 23.3234 106.08 23.4141C106.216 23.5049 106.392 23.59 106.607 23.6693C106.829 23.7431 107.101 23.8111 107.424 23.8735C108.088 24.0096 108.68 24.1883 109.202 24.4094C109.724 24.6249 110.138 24.9199 110.444 25.2942C110.75 25.6628 110.903 26.1477 110.903 26.7488C110.903 27.1571 110.813 27.5314 110.631 27.8717C110.45 28.212 110.189 28.5097 109.849 28.7649C109.508 29.0145 109.1 29.2101 108.624 29.3519C108.153 29.488 107.623 29.5561 107.033 29.5561C106.176 29.5561 105.45 29.403 104.855 29.0967C104.265 28.7905 103.817 28.402 103.511 27.9313C103.21 27.4549 103.06 26.9672 103.06 26.4681H105.382C105.394 26.8027 105.479 27.0721 105.638 27.2762C105.802 27.4804 106.009 27.6279 106.259 27.7186C106.514 27.8093 106.789 27.8547 107.084 27.8547C107.401 27.8547 107.665 27.8122 107.875 27.7271C108.085 27.6364 108.244 27.5173 108.351 27.3698C108.465 27.2167 108.521 27.0409 108.521 26.8424Z" fill="white"/>
<path d="M96.178 22.1466V29.3859H93.728V20.1816H96.0249L96.178 22.1466ZM95.8207 24.4605H95.1572C95.1572 23.7799 95.2451 23.1674 95.4209 22.623C95.5967 22.0729 95.8434 21.605 96.161 21.2194C96.4786 20.8281 96.8557 20.5303 97.2924 20.3262C97.7347 20.1163 98.2281 20.0114 98.7726 20.0114C99.2036 20.0114 99.5977 20.0738 99.955 20.1986C100.312 20.3233 100.619 20.5218 100.874 20.794C101.135 21.0663 101.333 21.4264 101.469 21.8744C101.611 22.3224 101.682 22.8697 101.682 23.5162V29.3859H99.2149V23.5077C99.2149 23.0994 99.1582 22.7818 99.0448 22.555C98.9314 22.3281 98.7641 22.1693 98.5429 22.0786C98.3274 21.9822 98.0608 21.934 97.7433 21.934C97.4143 21.934 97.1279 21.9992 96.8841 22.1296C96.6459 22.2601 96.4474 22.4415 96.2886 22.6741C96.1355 22.9009 96.0192 23.1674 95.9398 23.4737C95.8604 23.7799 95.8207 24.1089 95.8207 24.4605Z" fill="white"/>
<path d="M89.4235 27.3103V23.21C89.4235 22.9151 89.3753 22.6627 89.2789 22.4529C89.1825 22.2374 89.0322 22.0701 88.828 21.951C88.6295 21.8319 88.3715 21.7723 88.0539 21.7723C87.7817 21.7723 87.5463 21.8205 87.3478 21.9169C87.1494 22.0077 86.9962 22.141 86.8885 22.3168C86.7807 22.4869 86.7268 22.6882 86.7268 22.9207H84.2769C84.2769 22.5294 84.3676 22.158 84.5491 21.8064C84.7306 21.4547 84.9943 21.1457 85.3402 20.8791C85.6862 20.6069 86.0973 20.3942 86.5737 20.2411C87.0558 20.088 87.5945 20.0114 88.19 20.0114C88.9046 20.0114 89.5398 20.1305 90.0955 20.3687C90.6513 20.6069 91.088 20.9642 91.4056 21.4406C91.7289 21.9169 91.8905 22.5124 91.8905 23.227V27.1657C91.8905 27.6704 91.9217 28.0844 91.9841 28.4077C92.0464 28.7252 92.1372 29.0031 92.2563 29.2413V29.3859H89.7808C89.6617 29.1364 89.571 28.8245 89.5086 28.4502C89.4519 28.0702 89.4235 27.6902 89.4235 27.3103ZM89.7468 23.7799L89.7638 25.1666H88.3942C88.0709 25.1666 87.7902 25.2034 87.552 25.2771C87.3138 25.3509 87.1182 25.4558 86.965 25.5919C86.8119 25.7223 86.6985 25.8755 86.6248 26.0513C86.5567 26.2271 86.5227 26.4199 86.5227 26.6297C86.5227 26.8396 86.5709 27.0295 86.6673 27.1997C86.7637 27.3641 86.9027 27.4946 87.0841 27.591C87.2656 27.6817 87.4783 27.7271 87.7221 27.7271C88.0908 27.7271 88.4112 27.6534 88.6834 27.5059C88.9556 27.3585 89.1655 27.177 89.3129 26.9615C89.466 26.746 89.5454 26.5418 89.5511 26.349L90.1976 27.3868C90.1069 27.6194 89.9821 27.8604 89.8233 28.1099C89.6702 28.3594 89.4746 28.5948 89.2364 28.816C88.9982 29.0315 88.7118 29.2101 88.3772 29.3519C88.0426 29.488 87.6456 29.5561 87.1862 29.5561C86.6021 29.5561 86.0718 29.4398 85.5954 29.2073C85.1247 28.9691 84.7504 28.643 84.4725 28.229C84.2003 27.8093 84.0642 27.333 84.0642 26.7999C84.0642 26.3178 84.1549 25.8896 84.3364 25.5153C84.5179 25.141 84.7845 24.8263 85.1361 24.5711C85.4934 24.3102 85.9385 24.1145 86.4716 23.9841C87.0047 23.848 87.6229 23.7799 88.3261 23.7799H89.7468Z" fill="white"/>
<path d="M80.8146 22.1892V29.3859H78.3646V20.1816H80.67L80.8146 22.1892ZM83.5878 20.122L83.5453 22.3933C83.4262 22.3763 83.2816 22.3621 83.1114 22.3508C82.947 22.3338 82.7967 22.3253 82.6606 22.3253C82.3146 22.3253 82.0141 22.3706 81.7588 22.4614C81.5093 22.5464 81.2995 22.6741 81.1293 22.8442C80.9649 23.0143 80.8401 23.2213 80.755 23.4652C80.6756 23.709 80.6303 23.9869 80.6189 24.2989L80.1255 24.1457C80.1255 23.5503 80.1851 23.003 80.3042 22.5039C80.4233 21.9992 80.5962 21.5597 80.8231 21.1854C81.0556 20.8111 81.3392 20.5218 81.6738 20.3177C82.0084 20.1135 82.3912 20.0114 82.8222 20.0114C82.9583 20.0114 83.0973 20.0228 83.239 20.0454C83.3808 20.0625 83.4971 20.088 83.5878 20.122Z" fill="white"/>
<path d="M73.8475 17V29.3859H71.304V17H73.8475ZM77.6586 17V18.9991H67.5525V17H77.6586Z" fill="white"/>
<path fill-rule="evenodd" clip-rule="evenodd" d="M0 38.2H15.4286C18.5111 38.2 21.3106 37.7415 23.827 36.8246C26.3434 35.876 28.498 34.5638 30.291 32.888C32.1153 31.1806 33.5151 29.1253 34.4902 26.7223C35.4967 24.3192 36 21.6474 36 18.7069C36 15.9244 35.3552 13.5055 34.0655 11.4503C32.8073 9.39505 30.983 7.8141 28.5924 6.70743C26.2018 5.56914 23.3237 5 19.9581 5H6.60551L3.30275 21.6L1.65138 29.9L1.37901 31.2689L1.03801 32.9829L0.825688 34.05L0 38.2ZM15.6173 32.9829H7.17169H1.03801L1.37901 31.2689H7.5127L7.8537 29.555L8.53572 26.1271L10.1944 24.7377L14.2106 31.3492H19.9039L14.0879 21.7445L22.9235 14.3381H16.5382L9.77141 19.9164L11.7012 10.2171H19.2975C21.6252 10.2171 23.5596 10.5808 25.1009 11.308C26.6737 12.0352 27.8532 13.0629 28.6396 14.3909C29.426 15.7189 29.8191 17.284 29.8191 19.0863C29.8191 21.7423 29.2529 24.1137 28.1206 26.2006C26.9882 28.2874 25.3526 29.9474 23.2136 31.1806C21.1062 32.3821 18.5741 32.9829 15.6173 32.9829Z" fill="#F6B100"/>
</svg>
